<svg width="240" height="60" viewBox="0 0 240 60" fill="none" xmlns="http://www.w3.org/2000/svg">
<rect x="1" y="1" width="86" height="58" rx="13" stroke="white" stroke-width="2"/>
<path d="M17.728 29.832C18.112 27.656 18.944 25.704 20.224 23.976C21.5253 22.2267 23.104 20.8613 24.96 19.88C26.8373 18.8987 28.8 18.408 30.848 18.408C33.28 18.408 35.296 18.9947 36.896 20.168C38.5173 21.3413 39.5627 23.0053 40.032 25.16H36.544C36.16 23.8587 35.4453 22.856 34.4 22.152C33.3547 21.4267 32.0213 21.064 30.4 21.064C28.8427 21.064 27.3813 21.4267 26.016 22.152C24.672 22.856 23.5307 23.88 22.592 25.224C21.6533 26.5467 21.024 28.0827 20.704 29.832C20.5973 30.3867 20.544 31.0267 20.544 31.752C20.544 33.8427 21.152 35.5067 22.368 36.744C23.6053 37.96 25.248 38.568 27.296 38.568C28.9173 38.568 30.3787 38.216 31.68 37.512C32.9813 36.808 34.048 35.8053 34.88 34.504H38.368C37.152 36.6373 35.5307 38.2907 33.504 39.464C31.4987 40.616 29.28 41.192 26.848 41.192C25.0347 41.192 23.424 40.8187 22.016 40.072C20.608 39.304 19.5093 38.2373 18.72 36.872C17.9307 35.4853 17.536 33.896 17.536 32.104C17.536 31.3573 17.6 30.6 17.728 29.832ZM45.9668 36.2C45.9028 36.52 45.8708 36.7973 45.8708 37.032C45.8708 37.5653 46.0308 37.9493 46.3508 38.184C46.6921 38.4187 47.2361 38.536 47.9828 38.536H50.1267L49.6788 41H47.0548C45.6681 41 44.6228 40.7333 43.9188 40.2C43.2361 39.6667 42.8948 38.792 42.8948 37.576C42.8948 37.1067 42.9374 36.648 43.0228 36.2L44.8468 25.864H42.6068L43.0228 23.464H45.2948L46.0628 19.048H49.0068L48.2388 23.464H52.7828L52.3668 25.864H47.7908L45.9668 36.2ZM58.647 26.792C59.351 25.64 60.2363 24.744 61.303 24.104C62.3697 23.464 63.5857 23.144 64.951 23.144L64.407 26.152H63.639C62.1243 26.152 60.855 26.5573 59.831 27.368C58.8283 28.1787 58.1563 29.544 57.815 31.464L56.119 41H53.207L56.311 23.464H59.223L58.647 26.792ZM72.2485 17.32L68.0565 41H65.1445L69.3365 17.32H72.2485Z" fill="white"/>
<path d="M115.296 30.6H108.544L107.328 37.448H104.544L105.76 30.6H99.008L99.456 28.008H106.208L107.424 21.128H110.208L108.992 28.008H115.776L115.296 30.6ZM139.343 18.696C141.562 18.696 143.236 19.176 144.367 20.136C145.498 21.096 146.063 22.376 146.063 23.976C146.063 24.232 146.02 24.6587 145.935 25.256C145.658 26.792 144.975 28.1467 143.887 29.32C142.799 30.4933 141.338 31.272 139.503 31.656L143.439 41H139.951L136.239 31.88H132.751L131.119 41H128.207L132.175 18.696H139.343ZM142.927 25.256C142.991 24.872 143.023 24.52 143.023 24.2C143.023 23.176 142.682 22.3867 141.999 21.832C141.338 21.2773 140.314 21 138.927 21H134.671L133.167 29.544H137.455C139.034 29.544 140.282 29.16 141.199 28.392C142.116 27.6027 142.692 26.5573 142.927 25.256ZM158.396 23.176C159.868 23.176 161.137 23.464 162.204 24.04C163.292 24.5947 164.113 25.384 164.668 26.408C165.244 27.4107 165.532 28.5627 165.532 29.864C165.532 30.312 165.478 30.856 165.372 31.496C165.286 32.0507 165.148 32.6267 164.956 33.224H150.94C150.897 33.6507 150.876 33.96 150.876 34.152C150.876 35.624 151.313 36.776 152.188 37.608C153.084 38.4187 154.246 38.824 155.676 38.824C156.934 38.824 158.033 38.536 158.972 37.96C159.932 37.3627 160.657 36.5733 161.148 35.592H164.284C163.516 37.2773 162.332 38.6533 160.732 39.72C159.153 40.7653 157.318 41.288 155.228 41.288C153.03 41.288 151.26 40.6587 149.916 39.4C148.593 38.12 147.932 36.3813 147.932 34.184C147.932 33.5653 147.996 32.904 148.124 32.2C148.444 30.3867 149.094 28.7973 150.076 27.432C151.057 26.0667 152.262 25.0213 153.692 24.296C155.142 23.5493 156.71 23.176 158.396 23.176ZM162.428 31.112C162.492 30.6853 162.524 30.2907 162.524 29.928C162.524 28.5627 162.086 27.5067 161.212 26.76C160.358 26.0133 159.238 25.64 157.852 25.64C156.358 25.64 155.004 26.1307 153.788 27.112C152.572 28.072 151.75 29.4053 151.324 31.112H162.428ZM174.528 38.248L182.592 23.464H185.728L175.744 41H172.32L168.544 23.464H171.68L174.528 38.248ZM190.545 20.616C190.076 20.616 189.681 20.4667 189.361 20.168C189.062 19.848 188.913 19.4533 188.913 18.984C188.913 18.344 189.148 17.8 189.617 17.352C190.086 16.8827 190.63 16.648 191.249 16.648C191.74 16.648 192.134 16.7973 192.433 17.096C192.732 17.3947 192.881 17.7893 192.881 18.28C192.881 18.92 192.646 19.4747 192.177 19.944C191.708 20.392 191.164 20.616 190.545 20.616ZM191.473 23.464L188.369 41H185.457L188.561 23.464H191.473ZM204.052 23.176C205.524 23.176 206.793 23.464 207.86 24.04C208.948 24.5947 209.769 25.384 210.324 26.408C210.9 27.4107 211.188 28.5627 211.188 29.864C211.188 30.312 211.135 30.856 211.028 31.496C210.943 32.0507 210.804 32.6267 210.612 33.224H196.596C196.553 33.6507 196.532 33.96 196.532 34.152C196.532 35.624 196.969 36.776 197.844 37.608C198.74 38.4187 199.903 38.824 201.332 38.824C202.591 38.824 203.689 38.536 204.628 37.96C205.588 37.3627 206.313 36.5733 206.804 35.592H209.94C209.172 37.2773 207.988 38.6533 206.388 39.72C204.809 40.7653 202.975 41.288 200.884 41.288C198.687 41.288 196.916 40.6587 195.572 39.4C194.249 38.12 193.588 36.3813 193.588 34.184C193.588 33.5653 193.652 32.904 193.78 32.2C194.1 30.3867 194.751 28.7973 195.732 27.432C196.713 26.0667 197.919 25.0213 199.348 24.296C200.799 23.5493 202.367 23.176 204.052 23.176ZM208.084 31.112C208.148 30.6853 208.18 30.2907 208.18 29.928C208.18 28.5627 207.743 27.5067 206.868 26.76C206.015 26.0133 204.895 25.64 203.508 25.64C202.015 25.64 200.66 26.1307 199.444 27.112C198.228 28.072 197.407 29.4053 196.98 31.112H208.084ZM239.64 23.464L231.064 41H228.056L226.328 27.048L219.608 41H216.6L214.2 23.464H217.176L218.616 38.184L225.528 23.464H228.536L230.2 38.088L236.76 23.464H239.64Z" fill="white"/>
</svg>
